<?xml version="1.0" encoding="utf-8"?>
<svg version="1.0" xmlns="http://www.w3.org/2000/svg" width="300.000000pt" height="252.000000pt" viewBox="0 0 300.000000 252.000000" preserveAspectRatio="xMidYMid meet">
  <g transform="translate(0.000000,252.000000) scale(0.100000,-0.100000)" fill="#000000" stroke="none">
    <path d="M1200 2509 c-63 -12 -158 -61 -213 -110 -60 -52 -162 -198 -143 -205 7 -3 359 -4 782 -2 754 3 770 4 831 25 118 40 203 110 291 241 l43 62 -773 -1 c-425 -1 -793 -5 -818 -10z" style="fill: rgb(255, 255, 255);"/>
    <path d="M390 2112 c0 -4 179 -38 398 -75 218 -38 410 -72 425 -75 l28 -7 -97 -142 c-54 -79 -96 -145 -93 -147 4 -4 300 31 304 36 10 14 271 404 273 410 2 4 -276 8 -617 8 -342 0 -621 -3 -621 -8z" style="fill: rgb(255, 255, 255);"/>
    <path d="M1627 1983 c-156 -230 -179 -264 -175 -268 7 -7 300 33 308 42 9 10 234 345 238 356 2 4 -59 7 -136 7 l-141 0 -94 -137z" style="fill: rgb(255, 255, 255);"/>
    <path d="M2007 1998 c-123 -180 -157 -232 -153 -235 6 -6 240 29 260 39 55 28 93 69 164 176 43 64 82 123 86 130 6 9 -24 12 -133 12 l-140 0 -84 -122z" style="fill: rgb(255, 255, 255);"/>
    <path d="M491 1695 c-106 -157 -188 -285 -184 -285 4 0 124 14 266 32 l257 32 145 214 c80 118 144 216 143 218 -4 3 -410 74 -425 74 -6 0 -97 -128 -202 -285z" style="fill: rgb(255, 255, 255);"/>
    <path d="M777 1186 c-62 -17 -102 -56 -116 -113 -23 -90 9 -171 83 -211 44 -23 208 -23 252 0 71 39 104 112 89 200 -19 108 -158 164 -308 124z m196 -94 c17 -17 22 -34 22 -73 0 -43 -4 -54 -28 -75 -24 -20 -39 -24 -97 -24 -85 0 -119 22 -126 85 -10 82 34 118 139 113 54 -3 72 -8 90 -26z" style="fill: rgb(255, 255, 255);"/>
    <path d="M100 1020 l0 -170 24 -6 c14 -3 34 -3 45 1 18 5 21 15 21 55 l0 49 123 3 122 3 0 35 0 35 -122 3 -123 3 0 44 0 45 129 0 130 0 20 29 c12 16 21 32 21 35 0 3 -88 6 -195 6 l-195 0 0 -170z" style="fill: rgb(255, 255, 255);"/>
    <path d="M1310 1020 l0 -170 45 0 45 0 0 135 0 135 88 0 c97 0 132 -14 132 -54 0 -38 -26 -51 -118 -56 l-85 -5 94 -76 c92 -75 95 -77 157 -80 34 -2 62 -2 62 1 0 3 -27 25 -60 48 -60 44 -73 62 -45 62 8 0 28 12 45 28 57 51 50 142 -15 182 -29 18 -50 20 -189 20 l-156 0 0 -170z" style="fill: rgb(255, 255, 255);"/>
    <path d="M1961 1158 l-20 -33 110 -5 110 -5 -98 -116 c-54 -63 -104 -123 -112 -132 -12 -16 0 -17 183 -17 l196 0 0 35 0 34 -110 3 -110 3 98 116 c53 64 103 123 111 132 12 16 0 17 -162 17 l-175 0 -21 -32z" style="fill: rgb(255, 255, 255);"/>
    <path d="M2607 1020 l-88 -170 51 0 c48 0 51 2 67 35 l17 35 103 0 103 0 17 -35 c16 -33 20 -35 66 -35 27 0 47 4 45 8 -1 5 -40 81 -86 170 l-83 162 -62 0 -62 0 -88 -170z m183 40 c16 -33 30 -62 30 -65 0 -3 -29 -5 -65 -5 l-65 0 32 65 c18 36 34 65 35 65 1 0 16 -27 33 -60z" style="fill: rgb(255, 255, 255);"/>
    <path d="M95 638 c-8 -49 -85 -562 -85 -570 0 -5 558 -8 1239 -8 l1239 0 6 27 c3 16 24 147 46 293 22 146 43 271 45 278 3 9 -249 12 -1240 12 l-1244 0 -6 -32z m699 -33 c54 -28 83 -88 86 -175 2 -55 2 -55 16 30 7 47 16 100 19 118 l6 32 97 -1 c156 0 207 -32 205 -127 -1 -57 -21 -100 -63 -135 l-30 -26 30 -94 c16 -52 30 -97 30 -101 0 -4 -33 -6 -72 -4 l-72 3 -16 77 c-8 42 -18 79 -21 83 -4 3 -9 -23 -13 -57 -13 -112 -10 -108 -80 -108 -35 0 -65 2 -68 5 -3 3 3 54 13 113 21 122 23 157 5 92 -14 -53 -40 -107 -64 -135 -110 -129 -268 -97 -303 61 l-13 59 -15 -95 -16 -95 -67 -3 c-79 -3 -75 -12 -54 116 l13 82 -26 0 c-26 0 -27 -2 -41 -97 l-15 -98 -68 -3 c-64 -3 -67 -2 -67 20 0 13 16 120 35 238 19 118 35 218 35 223 0 4 32 7 71 7 l70 0 -6 -47 c-4 -27 -11 -65 -15 -85 -8 -37 -7 -38 19 -38 27 0 28 2 40 85 l13 85 69 0 c40 0 69 -4 69 -10 0 -6 -7 -53 -15 -106 -9 -53 -13 -99 -10 -102 3 -3 5 4 5 15 0 11 14 47 30 80 29 59 74 103 122 123 36 14 100 11 132 -5z m1189 1 c71 -30 103 -100 94 -205 -8 -91 -31 -152 -79 -206 -52 -59 -84 -75 -152 -75 -67 0 -106 28 -132 95 -22 58 -15 181 14 246 54 122 163 184 255 145z m-578 -48 c-4 -29 -21 -138 -39 -243 l-31 -190 -65 0 -65 0 3 30 c3 41 62 427 67 443 3 8 26 12 70 12 l66 0 -6 -52z m347 20 c-71 -119 -192 -327 -192 -332 0 -3 31 -6 68 -8 l68 -3 -10 -55 -11 -55 -162 -3 c-129 -2 -163 0 -163 11 0 7 47 90 104 185 l104 172 -65 0 -66 0 7 38 c3 20 6 47 6 60 0 22 1 22 166 22 l166 0 -20 -32z m503 10 c3 -13 14 -68 25 -122 23 -111 30 -128 30 -70 0 21 5 68 10 104 18 118 13 110 80 110 57 0 60 -1 60 -25 0 -22 -54 -380 -66 -432 -4 -21 -10 -23 -68 -23 l-64 0 -10 48 c-6 26 -16 81 -23 122 -15 85 -15 84 -39 -82 l-12 -88 -64 0 c-35 0 -64 4 -64 8 0 5 16 107 35 228 19 120 35 225 35 231 0 9 20 13 65 13 59 0 65 -2 70 -22z" style="fill: rgb(255, 255, 255);"/>
    <path d="M1040 488 c-1 -7 -5 -32 -9 -56 -7 -36 -6 -42 7 -40 8 2 24 15 35 30 17 23 19 31 9 53 -12 26 -42 35 -42 13z" style="fill: rgb(255, 255, 255);"/>
    <path d="M675 466 c-23 -35 -35 -84 -35 -146 0 -64 13 -85 42 -69 26 14 45 62 53 135 11 92 -23 136 -60 80z" style="fill: rgb(255, 255, 255);"/>
    <path d="M492 345 c0 -16 2 -22 5 -12 2 9 2 23 0 30 -3 6 -5 -1 -5 -18z" style="fill: rgb(255, 255, 255);"/>
    <path d="M1874 465 c-21 -32 -33 -88 -34 -151 0 -82 42 -97 75 -27 19 40 31 138 21 177 -8 34 -40 34 -62 1z" style="fill: rgb(255, 255, 255);"/>
    <path d="M2644 623 c-4 -27 -17 -110 -29 -186 l-22 -138 46 8 c68 11 112 7 140 -15 77 -57 -6 -149 -111 -122 -24 7 -53 18 -65 26 -21 13 -22 12 -29 -24 -4 -20 -8 -57 -8 -82 -1 -43 0 -44 44 -62 66 -25 178 -24 235 3 50 24 100 76 121 125 21 50 18 140 -7 191 -26 53 -62 79 -130 95 -30 6 -56 13 -57 14 -2 1 -1 16 3 33 l6 30 92 3 92 3 11 50 c24 103 38 95 -155 95 l-170 0 -7 -47z" style="fill: rgb(255, 255, 255);"/>
  </g>
</svg>