<?xml version="1.0" encoding="utf-8"?>
<svg version="1.0" xmlns="http://www.w3.org/2000/svg" width="470.000000pt" height="252.000000pt" viewBox="0 0 470.000000 252.000000" preserveAspectRatio="xMidYMid meet">
  <g transform="translate(0.000000,252.000000) scale(0.100000,-0.100000)" fill="#000000" stroke="none">
    <path d="M1966 2508 c-68 -13 -162 -58 -222 -107 -29 -22 -80 -82 -114 -131 l-62 -91 824 3 823 3 60 24 c122 49 197 112 283 238 23 34 42 64 42 67 0 10 -1582 4 -1634 -6z" style="fill: rgb(255, 255, 255);"/>
    <path d="M1116 2101 c-8 -12 -16 -10 454 -92 228 -39 417 -73 419 -75 2 -2 -40 -70 -93 -150 -54 -80 -95 -148 -93 -150 5 -5 306 32 311 38 18 21 277 410 282 422 6 15 -48 16 -634 16 -366 0 -643 -4 -646 -9z" style="fill: rgb(255, 255, 255);"/>
    <path d="M2356 1898 c-79 -117 -143 -214 -141 -216 5 -5 303 35 315 43 9 6 248 355 258 378 2 4 -62 7 -142 7 l-145 0 -145 -212z" style="fill: rgb(255, 255, 255);"/>
    <path d="M2758 1923 c-70 -103 -126 -189 -124 -190 1 -2 56 4 122 13 127 16 184 37 226 81 27 30 188 266 188 277 0 3 -64 6 -143 6 l-143 0 -126 -187z" style="fill: rgb(255, 255, 255);"/>
    <path d="M1254 1713 c-92 -136 -182 -269 -201 -295 -27 -40 -30 -48 -15 -48 9 0 133 14 275 32 l259 32 148 220 c124 185 146 222 132 228 -9 4 -98 21 -197 38 -99 17 -192 33 -207 36 -25 5 -35 -8 -194 -243z" style="fill: rgb(255, 255, 255);"/>
    <path d="M1536 1140 c-54 -10 -88 -31 -120 -74 -31 -40 -30 -172 0 -213 36 -48 79 -66 168 -71 105 -5 160 10 207 56 81 82 57 238 -44 282 -52 22 -146 31 -211 20z m171 -97 c34 -24 45 -67 32 -115 -15 -58 -57 -76 -167 -70 -49 3 -92 49 -92 99 0 53 20 86 60 100 49 18 135 11 167 -14z" style="fill: rgb(255, 255, 255);"/>
    <path d="M810 959 l0 -180 48 3 47 3 0 50 0 50 125 5 125 5 3 37 3 37 -127 3 -127 3 -1 43 -1 42 131 0 132 0 26 34 c14 19 26 37 26 40 0 3 -92 6 -205 6 l-205 0 0 -181z" style="fill: rgb(255, 255, 255);"/>
    <path d="M2070 960 l0 -180 45 0 45 0 0 140 0 140 103 0 c111 0 127 -6 127 -50 0 -43 -16 -50 -117 -50 -51 0 -93 -3 -92 -7 0 -5 47 -45 104 -91 l103 -83 59 3 58 3 -62 49 c-64 50 -75 66 -47 66 9 0 31 15 50 34 28 28 34 42 34 75 0 56 -22 95 -64 115 -27 13 -66 16 -190 16 l-156 0 0 -180z" style="fill: rgb(255, 255, 255);"/>
    <path d="M2745 1103 l-25 -38 114 -5 114 -5 -114 -135 -114 -135 192 -3 c106 -1 198 0 206 3 8 3 12 17 10 37 l-3 33 -112 5 -112 5 72 86 c40 48 92 109 115 138 l44 51 -181 0 -180 0 -26 -37z" style="fill: rgb(255, 255, 255);"/>
    <path d="M3467 1058 c-52 -97 -137 -265 -137 -273 0 -3 22 -5 48 -5 47 0 50 1 67 40 l18 40 108 0 109 0 20 -40 c20 -39 22 -40 71 -40 l50 0 -93 180 -93 180 -62 0 -61 0 -45 -82z m173 -120 c0 -5 -32 -8 -70 -8 l-70 0 36 72 36 72 34 -64 c18 -36 33 -68 34 -72z" style="fill: rgb(255, 255, 255);"/>
    <path d="M0 431 l0 -73 111 -166 c62 -92 115 -171 119 -176 5 -4 41 41 82 100 l73 109 3 -107 3 -108 39 0 40 0 0 247 0 248 -116 -174 c-64 -95 -119 -169 -124 -165 -4 5 -54 79 -110 164 -56 85 -106 159 -111 165 -5 5 -9 -22 -9 -64z" style="fill: rgb(255, 255, 255);"/>
    <path d="M692 474 c-86 -43 -132 -120 -132 -224 0 -113 69 -205 179 -237 118 -34 236 21 297 137 27 51 25 162 -3 216 -25 47 -82 101 -129 120 -56 23 -152 18 -212 -12z m206 -81 c15 -11 38 -35 50 -54 20 -28 23 -44 20 -94 -6 -96 -67 -155 -162 -155 -127 0 -203 128 -144 240 44 84 165 116 236 63z" style="fill: rgb(255, 255, 255);"/>
    <path d="M1040 495 c0 -3 10 -21 23 -40 21 -33 25 -35 80 -35 l57 0 0 -205 0 -205 45 0 45 0 0 205 0 205 58 0 c54 0 58 2 80 35 12 19 22 37 22 40 0 3 -92 5 -205 5 -113 0 -205 -2 -205 -5z" style="fill: rgb(255, 255, 255);"/>
    <path d="M1572 478 c-118 -57 -174 -216 -116 -331 23 -45 72 -95 119 -120 30 -16 57 -21 110 -21 83 0 134 23 185 80 45 52 62 99 62 170 1 102 -58 188 -155 229 -53 22 -152 19 -205 -7z m193 -81 c57 -32 87 -88 82 -155 -12 -162 -212 -210 -304 -73 -39 58 -28 156 23 203 58 52 134 62 199 25z" style="fill: rgb(255, 255, 255);"/>
    <path d="M1946 461 l27 -41 118 0 c112 0 119 -1 148 -26 37 -31 41 -69 10 -108 -19 -24 -27 -26 -90 -26 -38 0 -69 -2 -69 -5 0 -3 36 -59 80 -125 l80 -120 51 0 c56 0 57 -6 -6 85 -23 33 -45 65 -48 72 -4 6 8 20 28 32 101 59 102 201 2 275 -26 19 -44 21 -193 24 l-165 3 27 -40z" style="fill: rgb(255, 255, 255);"/>
    <path d="M2481 483 c-69 -34 -96 -116 -61 -188 32 -66 74 -85 188 -85 98 0 122 -12 122 -63 0 -48 -29 -57 -187 -57 l-143 0 26 -40 27 -40 131 0 c112 0 136 3 163 20 90 54 86 190 -7 244 -26 16 -58 21 -133 24 -107 5 -122 14 -115 70 5 42 38 52 176 52 l122 0 0 40 0 40 -137 0 c-108 0 -145 -4 -172 -17z" style="fill: rgb(255, 255, 255);"/>
    <path d="M2890 255 l0 -245 40 0 40 0 0 79 0 79 108 3 c91 4 113 8 145 28 106 66 99 224 -13 281 -34 17 -59 20 -180 20 l-140 0 0 -245z m280 152 c38 -19 55 -61 40 -98 -18 -43 -37 -49 -144 -49 l-96 0 0 73 c0 41 3 77 7 80 12 12 167 7 193 -6z" style="fill: rgb(255, 255, 255);"/>
    <path d="M3482 478 c-118 -57 -174 -216 -116 -331 57 -113 178 -168 298 -133 153 45 225 217 150 356 -48 88 -122 130 -226 130 -42 -1 -77 -8 -106 -22z m193 -81 c57 -32 87 -88 82 -155 -12 -162 -212 -210 -304 -73 -39 58 -28 156 23 203 58 52 134 62 199 25z" style="fill: rgb(255, 255, 255);"/>
    <path d="M3856 461 l27 -41 118 0 c112 0 119 -1 148 -26 37 -31 41 -69 10 -108 -19 -24 -27 -26 -90 -26 -38 0 -69 -2 -69 -5 0 -3 36 -59 80 -125 l80 -120 51 0 c56 0 57 -6 -6 85 -23 33 -45 65 -48 72 -4 6 8 20 28 32 101 59 102 201 2 275 -26 19 -44 21 -193 24 l-165 3 27 -40z" style="fill: rgb(255, 255, 255);"/>
    <path d="M4280 495 c0 -3 10 -21 23 -40 21 -33 25 -35 80 -35 l57 0 0 -205 0 -205 45 0 45 0 0 205 0 205 58 0 c54 0 58 2 80 35 12 19 22 37 22 40 0 3 -92 5 -205 5 -113 0 -205 -2 -205 -5z" style="fill: rgb(255, 255, 255);"/>
    <path d="M0 240 c0 -20 21 -62 67 -130 53 -81 71 -100 90 -100 17 0 22 4 17 13 -26 43 -165 247 -169 247 -3 0 -5 -14 -5 -30z" style="fill: rgb(255, 255, 255);"/>
    <path d="M1993 246 c4 -9 41 -65 82 -126 62 -90 81 -110 101 -110 23 0 19 8 -58 122 -62 92 -89 124 -107 126 -18 3 -22 0 -18 -12z" style="fill: rgb(255, 255, 255);"/>
    <path d="M3903 247 c3 -7 40 -64 82 -125 62 -92 81 -112 101 -112 23 0 19 8 -58 122 -62 92 -89 124 -107 126 -17 3 -22 0 -18 -11z" style="fill: rgb(255, 255, 255);"/>
    <path d="M0 68 l0 -58 41 0 40 0 -18 30 c-9 17 -28 43 -40 58 l-22 27 -1 -57z" style="fill: rgb(255, 255, 255);"/>
  </g>
</svg>